<svg xmlns="http://www.w3.org/2000/svg"  viewBox="0 0 50 50" width="25px" height="25px"><path d="M15.825,43.879C15.733,43.959,15.617,44,15.5,44c-0.07,0-0.141-0.015-0.208-0.045c-0.177-0.081-0.291-0.257-0.292-0.452	L14.96,38H12.5c-1.085,0-2.097-0.316-2.951-0.86c-0.718-0.458-1.324-1.079-1.764-1.809C7.287,34.503,7,33.534,7,32.5v-16	c0-0.979,0.257-1.899,0.707-2.696c0.466-0.825,1.138-1.518,1.947-2.009C10.485,11.291,11.459,11,12.5,11h25	c1.062,0,2.055,0.303,2.896,0.826c0.771,0.48,1.416,1.145,1.871,1.933C42.733,14.566,43,15.502,43,16.5v16	c0,1.089-0.318,2.105-0.866,2.96c-0.45,0.702-1.054,1.295-1.765,1.731C39.533,37.704,38.55,38,37.5,38H22.685l-6.566,5.628	C16.004,43.726,15.917,43.8,15.825,43.879z"/></svg>