<svg xmlns="http://www.w3.org/2000/svg"  viewBox="0 0 50 50" width="25px" height="25px"><path d="M15.5,44c-0.07,0-0.141-0.015-0.208-0.045c-0.177-0.081-0.291-0.257-0.292-0.452L14.96,38H12.5	c-1.085,0-2.097-0.316-2.951-0.86c-0.718-0.458-1.324-1.079-1.764-1.809C7.287,34.503,7,33.534,7,32.5v-16	c0-0.979,0.257-1.899,0.707-2.696c0.466-0.825,1.138-1.518,1.947-2.009C10.485,11.291,11.459,11,12.5,11h25	c1.062,0,2.055,0.303,2.896,0.826c0.771,0.48,1.416,1.145,1.871,1.933C42.733,14.566,43,15.502,43,16.5v16	c0,1.089-0.318,2.105-0.866,2.96c-0.45,0.702-1.054,1.295-1.765,1.731C39.533,37.704,38.55,38,37.5,38H22.685l-6.566,5.628	c-0.115,0.098-0.201,0.172-0.294,0.252S15.617,44,15.5,44z M12.5,12c-1.206,0-2.303,0.477-3.111,1.252C8.533,14.071,8,15.225,8,16.5	v16c0,1.208,0.478,2.306,1.255,3.115C10.075,36.468,11.226,37,12.5,37h2.957c0.137,0,0.262,0.055,0.352,0.145	c0.09,0.09,0.147,0.214,0.148,0.351l0.036,4.923l6.183-5.299c0.044-0.038,0.094-0.068,0.148-0.088C22.379,37.011,22.439,37,22.5,37	h15c1.237,0,2.359-0.502,3.174-1.312C41.492,34.872,42,33.744,42,32.5v-16c0-1.37-0.616-2.599-1.585-3.425	C39.63,12.405,38.611,12,37.5,12H12.5z"/></svg>