<svg xmlns="http://www.w3.org/2000/svg" xmlns:xlink="http://www.w3.org/1999/xlink" viewBox="0,0,256,256" width="24px" height="24px" fill-rule="nonzero"><defs><clipPath id="clip-1"><path d="M0,256v-256h256v256zM233.6,138.30705c-4.32762,-18.96838 -21.33943,-33.16419 -41.6,-33.16419c-20.26057,0 -37.27238,14.19581 -41.6,33.16419c-7.86286,4.05333 -13.25714,12.25143 -13.25714,21.69295v30.47619c0,13.4461 10.93486,24.38095 24.38095,24.38095h60.95238c13.4461,0 24.38095,-10.93486 24.38095,-24.38095v-30.47619c0,-9.44152 -5.39429,-17.63962 -13.25714,-21.69295z" id="overlayBgMask" fill="none"></path></clipPath></defs><g clip-path="url(#clip-1)" fill="none" fill-rule="nonzero" stroke="none" stroke-width="1" stroke-linecap="butt" stroke-linejoin="miter" stroke-miterlimit="10" stroke-dasharray="" stroke-dashoffset="0" font-family="none" font-weight="none" font-size="none" text-anchor="none" style="mix-blend-mode: normal"><g transform="scale(10.66667,10.66667)" fill="#000000"><path d="M16.5,3c-2.895,0 -4.5,2.09 -4.5,2.09c0,0 -1.605,-2.09 -4.5,-2.09c-3.038,0 -5.5,2.462 -5.5,5.5c0,5.5 10,12.5 10,12.5c0,0 10,-7 10,-12.5c0,-3.038 -2.462,-5.5 -5.5,-5.5zM12,18.518c-3.483,-2.673 -8,-7.112 -8,-10.018c0,-1.93 1.57,-3.5 3.5,-3.5c2.402,0 4.5,2.907 4.5,2.907c0,0 2.14,-2.907 4.5,-2.907c1.93,0 3.5,1.57 3.5,3.5c0,2.906 -4.517,7.345 -8,10.018z"></path></g></g><g fill="#000000" fill-rule="nonzero" stroke="none" stroke-width="1" stroke-linecap="butt" stroke-linejoin="miter" stroke-miterlimit="10" stroke-dasharray="" stroke-dashoffset="0" font-family="none" font-weight="none" font-size="none" text-anchor="none" style="mix-blend-mode: normal"><g transform="translate(149.33333,117.33333) scale(6.09524,6.09524)" id="overlay"><path d="M12,5c0,-2.757 -2.243,-5 -5,-5c-2.757,0 -5,2.243 -5,5c-1.105,0 -2,0.895 -2,2v5c0,1.105 0.895,2 2,2h10c1.105,0 2,-0.895 2,-2v-5c0,-1.105 -0.895,-2 -2,-2zM7,2c1.654,0 3,1.346 3,3h-6c0,-1.654 1.346,-3 3,-3z"></path></g></g></svg>