<svg fill="#1A1A1A" xmlns="http://www.w3.org/2000/svg"  viewBox="0 0 50 50" width="50px" height="50px"><path d="M 4 0 L 4 48 L 28 48 C 28.359375 48.003906 28.695313 47.816406 28.878906 47.503906 C 29.058594 47.191406 29.058594 46.808594 28.878906 46.496094 C 28.695313 46.183594 28.359375 45.996094 28 46 L 6 46 L 6 2 L 24 2 L 24 16 L 38 16 L 38 23 C 37.996094 23.359375 38.183594 23.695313 38.496094 23.878906 C 38.808594 24.058594 39.191406 24.058594 39.503906 23.878906 C 39.816406 23.695313 40.003906 23.359375 40 23 L 40 14.59375 L 39.71875 14.28125 L 25.71875 0.28125 L 25.40625 0 Z M 26 3.4375 L 36.5625 14 L 26 14 Z M 36 26 C 30.488281 26 26 30.488281 26 36 C 26 41.511719 30.488281 46 36 46 C 38.394531 46 40.589844 45.160156 42.3125 43.75 L 48.28125 49.71875 L 49.71875 48.28125 L 43.75 42.3125 C 45.160156 40.589844 46 38.394531 46 36 C 46 30.488281 41.511719 26 36 26 Z M 36 28 C 40.429688 28 44 31.570313 44 36 C 44 40.429688 40.429688 44 36 44 C 31.570313 44 28 40.429688 28 36 C 28 31.570313 31.570313 28 36 28 Z"/></svg>