<svg fill="#1A1A1A" xmlns="http://www.w3.org/2000/svg"  viewBox="0 0 72 72" width="64px" height="64px"><path d="M43.966 48.263c1.562 1.562 1.562 4.095 0 5.657-1.562 1.562-4.095 1.562-5.657 0l-.707-.707-7.248 7.248c-2.729 2.729-7.171 2.729-9.9 0L19.394 59.4l-4.066 4.066c-1.562 1.562-4.095 1.562-5.657 0-1.562-1.562-1.562-4.095 0-5.657l4.066-4.066-1.061-1.061c-2.729-2.729-2.729-7.17 0-9.899l7.248-7.248-.707-.707c-1.562-1.562-1.562-4.095 0-5.657s4.095-1.562 5.657 0L43.966 48.263zM27.526 51.976l4.419-4.419-6.364-6.364-4.419 4.419c-1.172 1.172-1.172 3.071 0 4.243l2.121 2.121C24.455 53.147 26.354 53.147 27.526 51.976zM64.466 8.784c1.562 1.562 1.562 4.095 0 5.657L60.4 18.507l1.061 1.061c2.729 2.729 2.729 7.17 0 9.899l-7.248 7.248.707.707c1.562 1.562 1.562 4.095 0 5.657-1.562 1.562-4.095 1.562-5.657 0L30.171 23.987c-1.562-1.562-1.562-4.095 0-5.657 1.562-1.562 4.095-1.562 5.657 0l.707.707 7.248-7.248c2.729-2.729 7.171-2.729 9.9 0l1.061 1.061 4.066-4.066C60.371 7.222 62.904 7.222 64.466 8.784zM52.976 26.638c1.172-1.172 1.172-3.071 0-4.243l-2.121-2.121c-1.172-1.172-3.071-1.172-4.243 0l-4.419 4.419 6.364 6.364L52.976 26.638z"/></svg>