<svg fill="#1A1A1A" xmlns="http://www.w3.org/2000/svg"  viewBox="0 0 50 50" width="50px" height="50px"><path d="M 25 2 C 12.321124 2 2 12.321124 2 25 C 2 37.678876 12.321124 48 25 48 C 37.678876 48 48 37.678876 48 25 A 2.0002 2.0002 0 1 0 44 25 C 44 35.517124 35.517124 44 25 44 C 14.482876 44 6 35.517124 6 25 C 6 14.482876 14.482876 6 25 6 C 30.475799 6 35.391893 8.3080175 38.855469 12 L 35 12 A 2.0002 2.0002 0 1 0 35 16 L 46 16 L 46 5 A 2.0002 2.0002 0 0 0 43.970703 2.9726562 A 2.0002 2.0002 0 0 0 42 5 L 42 9.5253906 C 37.79052 4.9067015 31.727675 2 25 2 z"/></svg>