<svg fill="#1A1A1A" xmlns="http://www.w3.org/2000/svg"  viewBox="0 0 72 72" width="64px" height="64px"><path d="M 20 16 C 18.976125 16 17.952375 16.390875 17.171875 17.171875 C 15.609875 18.732875 15.609875 21.266125 17.171875 22.828125 L 30.34375 36 L 17.171875 49.171875 C 15.609875 50.732875 15.609875 53.266125 17.171875 54.828125 C 17.951875 55.609125 18.977 56 20 56 C 21.023 56 22.048125 55.609125 22.828125 54.828125 L 36 41.65625 L 49.171875 54.828125 C 49.951875 55.609125 50.977 56 52 56 C 53.023 56 54.048125 55.609125 54.828125 54.828125 C 56.390125 53.267125 56.390125 50.733875 54.828125 49.171875 L 41.65625 36 L 54.828125 22.828125 C 56.390125 21.267125 56.390125 18.733875 54.828125 17.171875 C 53.268125 15.609875 50.732875 15.609875 49.171875 17.171875 L 36 30.34375 L 22.828125 17.171875 C 22.048125 16.390875 21.023875 16 20 16 z"/></svg>